<svg xmlns="http://www.w3.org/2000/svg" width="20" height="20" fill="none" viewBox="0 0 20 20"><path fill="#fff" d="M7.90556 18.7368C8.57889 19.187 9.28111 19.5985 10 20C10.7204 19.6038 11.4193 19.1823 12.0944 18.7368C13.22 17.988 14.2793 17.176 15.2644 16.3068C17.5356 14.2946 20 11.3775 20 8.103C20 7.0389 19.7413 5.98522 19.2388 5.00211C18.7362 4.01901 17.9997 3.12575 17.0711 2.37331C16.1425 1.62088 15.0401 1.02402 13.8268 0.616804C12.6136 0.20959 11.3132 0 10 0C8.68678 0 7.38642 0.20959 6.17317 0.616804C4.95991 1.02402 3.85752 1.62088 2.92893 2.37331C2.00035 3.12575 1.26375 4.01901 0.761205 5.00211C0.258658 5.98522 -1.95685e-08 7.0389 0 8.103C0 11.3775 2.46444 14.2937 4.73556 16.3068C5.72069 17.1763 6.77996 17.9877 7.90556 18.7368ZM10 11.0291C9.04227 11.0291 8.12377 10.7208 7.44656 10.1721C6.76934 9.6233 6.38889 8.87904 6.38889 8.103C6.38889 7.32695 6.76934 6.58269 7.44656 6.03395C8.12377 5.4852 9.04227 5.17692 10 5.17692C10.9577 5.17692 11.8762 5.4852 12.5534 6.03395C13.2307 6.58269 13.6111 7.32695 13.6111 8.103C13.6111 8.87904 13.2307 9.6233 12.5534 10.1721C11.8762 10.7208 10.9577 11.0291 10 11.0291Z"/></svg>