<svg xmlns="http://www.w3.org/2000/svg" width="18" height="18" fill="none" viewBox="0 0 18 18"><path fill="#fff" d="M16.8088 17.6557C14.7428 17.6557 12.7016 17.2104 10.6852 16.3198C8.66882 15.4291 6.83424 14.1661 5.18146 12.5307C3.52868 10.8952 2.25207 9.0806 1.35164 7.08681C0.451208 5.09302 0.000661111 3.07406 0 1.02992C0 0.735656 0.0991666 0.490437 0.2975 0.294262C0.495833 0.0980873 0.74375 0 1.04125 0H5.0575C5.28889 0 5.49549 0.0778159 5.67729 0.233448C5.8591 0.38908 5.96653 0.57283 5.99958 0.784699L6.64417 4.21776C6.67722 4.47932 6.66896 4.70002 6.61938 4.87985C6.56979 5.05967 6.47889 5.21498 6.34667 5.34576L3.94187 7.7489C4.27243 8.35378 4.6648 8.93805 5.11898 9.50173C5.57317 10.0654 6.0733 10.6091 6.61938 11.1329C7.13174 11.6397 7.66889 12.1099 8.23083 12.5434C8.79278 12.977 9.38778 13.3732 10.0158 13.7322L12.3462 11.4272C12.495 11.28 12.6894 11.1699 12.9293 11.0966C13.1693 11.0234 13.4047 11.0028 13.6354 11.0348L17.0567 11.7214C17.2881 11.7868 17.4781 11.9055 17.6269 12.0775C17.7756 12.2495 17.85 12.4414 17.85 12.6533V16.6258C17.85 16.9201 17.7508 17.1653 17.5525 17.3615C17.3542 17.5576 17.1063 17.6557 16.8088 17.6557Z"/></svg>