<svg xmlns="http://www.w3.org/2000/svg" width="20" height="19" fill="none" viewBox="0 0 20 19"><path fill="#fff" fill-rule="evenodd" d="M10 0C4.477 0 0 4.10472 0 9.16845C0 10.9013 0.525 12.5241 1.438 13.9067L0.546 16.6866C0.494785 16.8462 0.491415 17.0155 0.536244 17.1767C0.581074 17.3379 0.672448 17.4851 0.800759 17.6027C0.929071 17.7204 1.08958 17.8041 1.26542 17.8452C1.44125 17.8863 1.62592 17.8833 1.8 17.8363L4.832 17.0185C6.39074 17.883 8.17824 18.339 10 18.3369C15.523 18.3369 20 14.2322 20 9.16845C20 4.10472 15.523 0 10 0ZM7.738 11.2433C9.761 13.0971 11.692 13.3419 12.374 13.3648C13.411 13.3997 14.421 12.6735 14.814 11.831C14.8632 11.7261 14.881 11.611 14.8655 11.4977C14.85 11.3844 14.8019 11.277 14.726 11.1864C14.178 10.5446 13.437 10.0835 12.713 9.62504C12.5619 9.52898 12.3761 9.49041 12.1946 9.51743C12.0131 9.54444 11.8502 9.63495 11.74 9.7699L11.14 10.6088C11.1083 10.6537 11.0591 10.6859 11.0025 10.6989C10.9459 10.7118 10.886 10.7045 10.835 10.6785C10.428 10.4649 9.835 10.1018 9.409 9.71122C8.983 9.32065 8.611 8.80171 8.402 8.45239C8.37672 8.40789 8.36957 8.35657 8.38185 8.30767C8.39413 8.25877 8.42503 8.21548 8.469 8.18559L9.393 7.55664C9.52525 7.45174 9.61063 7.3058 9.63277 7.14676C9.65491 6.98773 9.61226 6.82679 9.513 6.6948C9.065 6.09335 8.543 5.3287 7.786 4.82169C7.6881 4.75719 7.57369 4.71698 7.45385 4.70493C7.33402 4.69288 7.21282 4.70941 7.102 4.75292C6.182 5.11416 5.386 6.04017 5.424 6.99278C5.449 7.61806 5.716 9.38849 7.738 11.2433Z" clip-rule="evenodd"/></svg>